<?xml version="1.0" encoding="UTF-8" standalone="no"?>
<!-- Created with Inkscape (http://www.inkscape.org/) -->

<svg
   xmlns:dc="http://purl.org/dc/elements/1.1/"
   xmlns:cc="http://creativecommons.org/ns#"
   xmlns:rdf="http://www.w3.org/1999/02/22-rdf-syntax-ns#"
   xmlns:svg="http://www.w3.org/2000/svg"
   xmlns="http://www.w3.org/2000/svg"
   xmlns:xlink="http://www.w3.org/1999/xlink"
   xmlns:sodipodi="http://sodipodi.sourceforge.net/DTD/sodipodi-0.dtd"
   xmlns:inkscape="http://www.inkscape.org/namespaces/inkscape"
   width="210mm"
   height="297mm"
   viewBox="0 0 210 297"
   version="1.1"
   id="svg9420"
   inkscape:version="0.92.3 (2405546, 2018-03-11)"
   sodipodi:docname="target-pointing-mode.svg"
   inkscape:export-filename="/home/sven/Documents/talks/spaceops101/img/target-pointing-mode.png"
   inkscape:export-xdpi="300"
   inkscape:export-ydpi="300">
  <defs
     id="defs9414">
    <linearGradient
       y2="-351.92529"
       x2="-151.83998"
       y1="-341.61874"
       x1="-225.89029"
       gradientTransform="rotate(180,-227.04757,-358.57135)"
       gradientUnits="userSpaceOnUse"
       id="linearGradient3418"
       xlink:href="#linearGradient3366"
       inkscape:collect="always" />
    <linearGradient
       id="linearGradient3366">
      <stop
         id="stop3368"
         offset="0"
         style="stop-color:#000067;stop-opacity:1;" />
      <stop
         id="stop3370"
         offset="1"
         style="stop-color:#8282ff;stop-opacity:1;" />
    </linearGradient>
    <linearGradient
       y2="-354.84586"
       x2="-150.06522"
       y1="-341.61874"
       x1="-225.89029"
       gradientTransform="matrix(1,0,0,0.8927203,8.010194,-77.544232)"
       gradientUnits="userSpaceOnUse"
       id="linearGradient3420"
       xlink:href="#linearGradient3366"
       inkscape:collect="always" />
    <linearGradient
       id="linearGradient6527">
      <stop
         id="stop6529"
         offset="0"
         style="stop-color:#346604;stop-opacity:1;" />
      <stop
         id="stop6531"
         offset="1"
         style="stop-color:#4e9a06;stop-opacity:1;" />
    </linearGradient>
    <linearGradient
       id="linearGradient6001"
       inkscape:collect="always">
      <stop
         id="stop6003"
         offset="0"
         style="stop-color:#ffffff;stop-opacity:1;" />
      <stop
         id="stop6005"
         offset="1"
         style="stop-color:#ffffff;stop-opacity:0;" />
    </linearGradient>
    <linearGradient
       id="linearGradient4126">
      <stop
         id="stop4128"
         offset="0.0000000"
         style="stop-color:#ffffff;stop-opacity:1.0000000;" />
      <stop
         id="stop4130"
         offset="1.0000000"
         style="stop-color:#ffffff;stop-opacity:0.16494845;" />
    </linearGradient>
    <linearGradient
       id="linearGradient4114"
       inkscape:collect="always">
      <stop
         id="stop4116"
         offset="0"
         style="stop-color:#000000;stop-opacity:1;" />
      <stop
         id="stop4118"
         offset="1"
         style="stop-color:#000000;stop-opacity:0;" />
    </linearGradient>
    <linearGradient
       id="linearGradient3962">
      <stop
         id="stop3964"
         offset="0.0000000"
         style="stop-color:#d3e9ff;stop-opacity:1.0000000;" />
      <stop
         id="stop4134"
         offset="0.15517241"
         style="stop-color:#d3e9ff;stop-opacity:1.0000000;" />
      <stop
         id="stop4346"
         offset="0.75000000"
         style="stop-color:#4074ae;stop-opacity:1.0000000;" />
      <stop
         id="stop3966"
         offset="1.0000000"
         style="stop-color:#36486c;stop-opacity:1.0000000;" />
    </linearGradient>
    <radialGradient
       gradientUnits="userSpaceOnUse"
       r="29.993349"
       fy="15.716079"
       fx="18.247644"
       cy="15.716079"
       cx="18.247644"
       gradientTransform="matrix(1.0056311,0,0,1.0056304,-1.7078855,0.3818364)"
       id="radialGradient3968"
       xlink:href="#linearGradient3962"
       inkscape:collect="always" />
    <radialGradient
       gradientUnits="userSpaceOnUse"
       r="12.289036"
       fy="63.965388"
       fx="15.115514"
       cy="63.965388"
       cx="15.115514"
       gradientTransform="scale(1.643990,0.608276)"
       id="radialGradient4120"
       xlink:href="#linearGradient4114"
       inkscape:collect="always" />
    <radialGradient
       gradientUnits="userSpaceOnUse"
       r="43.526714"
       fy="12.142302"
       fx="15.601279"
       cy="12.142302"
       cx="15.601279"
       gradientTransform="matrix(1.0056311,0,0,1.0056304,-1.7078855,0.3818364)"
       id="radialGradient4132"
       xlink:href="#linearGradient4126"
       inkscape:collect="always" />
    <radialGradient
       r="6.7175145"
       fy="12.493138"
       fx="12.071323"
       cy="12.493138"
       cx="12.071323"
       gradientUnits="userSpaceOnUse"
       id="radialGradient5983"
       xlink:href="#linearGradient6001"
       inkscape:collect="always" />
    <radialGradient
       r="6.7175145"
       fy="12.493138"
       fx="12.071323"
       cy="12.493138"
       cx="12.071323"
       gradientUnits="userSpaceOnUse"
       id="radialGradient5985"
       xlink:href="#linearGradient6001"
       inkscape:collect="always" />
    <radialGradient
       r="6.7175145"
       fy="12.493138"
       fx="12.071323"
       cy="12.493138"
       cx="12.071323"
       gradientUnits="userSpaceOnUse"
       id="radialGradient5987"
       xlink:href="#linearGradient6001"
       inkscape:collect="always" />
    <radialGradient
       r="6.7175145"
       fy="12.493138"
       fx="12.071323"
       cy="12.493138"
       cx="12.071323"
       gradientUnits="userSpaceOnUse"
       id="radialGradient5989"
       xlink:href="#linearGradient6001"
       inkscape:collect="always" />
    <linearGradient
       gradientUnits="userSpaceOnUse"
       y2="21.041553"
       x2="-22.252472"
       y1="30.057165"
       x1="-25.176178"
       id="linearGradient6007"
       xlink:href="#linearGradient6001"
       inkscape:collect="always" />
    <linearGradient
       y2="22.661524"
       x2="-22.113543"
       y1="30.057165"
       x1="-25.176178"
       gradientUnits="userSpaceOnUse"
       id="linearGradient6011"
       xlink:href="#linearGradient6001"
       inkscape:collect="always" />
    <linearGradient
       y2="22.661524"
       x2="-22.113543"
       y1="28.337734"
       x1="-22.822565"
       gradientUnits="userSpaceOnUse"
       id="linearGradient6015"
       xlink:href="#linearGradient6001"
       inkscape:collect="always" />
    <linearGradient
       y2="21.336346"
       x2="-21.962101"
       y1="15.649428"
       x1="-21.658581"
       gradientUnits="userSpaceOnUse"
       id="linearGradient6019"
       xlink:href="#linearGradient6001"
       inkscape:collect="always" />
    <radialGradient
       gradientUnits="userSpaceOnUse"
       gradientTransform="matrix(0.95295618,-0.02665615,0.02617771,0.93591558,0.66318174,2.1792646)"
       r="19.094028"
       fy="31.09733"
       fx="37.17944"
       cy="31.09733"
       cx="37.17944"
       id="radialGradient6533"
       xlink:href="#linearGradient6527"
       inkscape:collect="always" />
    <radialGradient
       r="17.142857"
       fy="40"
       fx="23.857143"
       cy="40"
       cx="23.857143"
       gradientTransform="matrix(1,0,0,0.5,0,20)"
       gradientUnits="userSpaceOnUse"
       id="radialGradient3976"
       xlink:href="#linearGradient4114"
       inkscape:collect="always" />
    <radialGradient
       inkscape:collect="always"
       xlink:href="#linearGradient4114"
       id="radialGradient6386"
       gradientUnits="userSpaceOnUse"
       gradientTransform="matrix(1,0,0,0.5,0,20)"
       cx="23.857143"
       cy="40"
       fx="23.857143"
       fy="40"
       r="17.142857" />
    <radialGradient
       r="19.094028"
       fy="31.09733"
       fx="37.17944"
       cy="31.09733"
       cx="37.17944"
       gradientTransform="matrix(0.95295618,-0.02665615,0.02617771,0.93591558,0.66318174,2.1792646)"
       gradientUnits="userSpaceOnUse"
       id="radialGradient6405"
       xlink:href="#linearGradient6527"
       inkscape:collect="always" />
    <radialGradient
       r="19.094028"
       fy="31.09733"
       fx="37.17944"
       cy="31.09733"
       cx="37.17944"
       gradientTransform="matrix(0.95295618,-0.02665615,0.02617771,0.93591558,0.66318174,2.1792646)"
       gradientUnits="userSpaceOnUse"
       id="radialGradient6407"
       xlink:href="#linearGradient6527"
       inkscape:collect="always" />
    <radialGradient
       r="19.094028"
       fy="31.09733"
       fx="37.17944"
       cy="31.09733"
       cx="37.17944"
       gradientTransform="matrix(0.95295618,-0.02665615,0.02617771,0.93591558,0.66318174,2.1792646)"
       gradientUnits="userSpaceOnUse"
       id="radialGradient6409"
       xlink:href="#linearGradient6527"
       inkscape:collect="always" />
    <radialGradient
       r="19.094028"
       fy="31.09733"
       fx="37.17944"
       cy="31.09733"
       cx="37.17944"
       gradientTransform="matrix(0.95295618,-0.02665615,0.02617771,0.93591558,0.66318174,2.1792646)"
       gradientUnits="userSpaceOnUse"
       id="radialGradient6411"
       xlink:href="#linearGradient6527"
       inkscape:collect="always" />
    <radialGradient
       r="19.094028"
       fy="31.09733"
       fx="37.17944"
       cy="31.09733"
       cx="37.17944"
       gradientTransform="matrix(0.95295618,-0.02665615,0.02617771,0.93591558,0.66318174,2.1792646)"
       gradientUnits="userSpaceOnUse"
       id="radialGradient6413"
       xlink:href="#linearGradient6527"
       inkscape:collect="always" />
    <radialGradient
       r="19.094028"
       fy="31.09733"
       fx="37.17944"
       cy="31.09733"
       cx="37.17944"
       gradientTransform="matrix(0.95295618,-0.02665615,0.02617771,0.93591558,0.66318174,2.1792646)"
       gradientUnits="userSpaceOnUse"
       id="radialGradient6415"
       xlink:href="#linearGradient6527"
       inkscape:collect="always" />
    <radialGradient
       r="19.094028"
       fy="31.09733"
       fx="37.17944"
       cy="31.09733"
       cx="37.17944"
       gradientTransform="matrix(0.95295618,-0.02665615,0.02617771,0.93591558,0.66318174,2.1792646)"
       gradientUnits="userSpaceOnUse"
       id="radialGradient6417"
       xlink:href="#linearGradient6527"
       inkscape:collect="always" />
    <radialGradient
       r="19.094028"
       fy="31.09733"
       fx="37.17944"
       cy="31.09733"
       cx="37.17944"
       gradientTransform="matrix(0.95295618,-0.02665615,0.02617771,0.93591558,0.66318174,2.1792646)"
       gradientUnits="userSpaceOnUse"
       id="radialGradient6419"
       xlink:href="#linearGradient6527"
       inkscape:collect="always" />
    <radialGradient
       r="19.094028"
       fy="31.09733"
       fx="37.17944"
       cy="31.09733"
       cx="37.17944"
       gradientTransform="matrix(0.95295618,-0.02665615,0.02617771,0.93591558,0.66318174,2.1792646)"
       gradientUnits="userSpaceOnUse"
       id="radialGradient6421"
       xlink:href="#linearGradient6527"
       inkscape:collect="always" />
    <radialGradient
       r="19.094028"
       fy="31.09733"
       fx="37.17944"
       cy="31.09733"
       cx="37.17944"
       gradientTransform="matrix(0.95295618,-0.02665615,0.02617771,0.93591558,0.66318174,2.1792646)"
       gradientUnits="userSpaceOnUse"
       id="radialGradient6423"
       xlink:href="#linearGradient6527"
       inkscape:collect="always" />
    <radialGradient
       r="19.094028"
       fy="31.09733"
       fx="37.17944"
       cy="31.09733"
       cx="37.17944"
       gradientTransform="matrix(0.95295618,-0.02665615,0.02617771,0.93591558,0.66318174,2.1792646)"
       gradientUnits="userSpaceOnUse"
       id="radialGradient6425"
       xlink:href="#linearGradient6527"
       inkscape:collect="always" />
    <radialGradient
       r="19.094028"
       fy="31.09733"
       fx="37.17944"
       cy="31.09733"
       cx="37.17944"
       gradientTransform="matrix(0.95295618,-0.02665615,0.02617771,0.93591558,0.66318174,2.1792646)"
       gradientUnits="userSpaceOnUse"
       id="radialGradient6427"
       xlink:href="#linearGradient6527"
       inkscape:collect="always" />
    <radialGradient
       r="19.094028"
       fy="31.09733"
       fx="37.17944"
       cy="31.09733"
       cx="37.17944"
       gradientTransform="matrix(0.95295618,-0.02665615,0.02617771,0.93591558,0.66318174,2.1792646)"
       gradientUnits="userSpaceOnUse"
       id="radialGradient6429"
       xlink:href="#linearGradient6527"
       inkscape:collect="always" />
    <radialGradient
       r="19.094028"
       fy="31.09733"
       fx="37.17944"
       cy="31.09733"
       cx="37.17944"
       gradientTransform="matrix(0.95295618,-0.02665615,0.02617771,0.93591558,0.66318174,2.1792646)"
       gradientUnits="userSpaceOnUse"
       id="radialGradient6431"
       xlink:href="#linearGradient6527"
       inkscape:collect="always" />
    <radialGradient
       r="19.094028"
       fy="31.09733"
       fx="37.17944"
       cy="31.09733"
       cx="37.17944"
       gradientTransform="matrix(0.95295618,-0.02665615,0.02617771,0.93591558,0.66318174,2.1792646)"
       gradientUnits="userSpaceOnUse"
       id="radialGradient6433"
       xlink:href="#linearGradient6527"
       inkscape:collect="always" />
    <radialGradient
       r="19.094028"
       fy="31.09733"
       fx="37.17944"
       cy="31.09733"
       cx="37.17944"
       gradientTransform="matrix(0.95295618,-0.02665615,0.02617771,0.93591558,0.66318174,2.1792646)"
       gradientUnits="userSpaceOnUse"
       id="radialGradient6435"
       xlink:href="#linearGradient6527"
       inkscape:collect="always" />
    <radialGradient
       r="19.094028"
       fy="31.09733"
       fx="37.17944"
       cy="31.09733"
       cx="37.17944"
       gradientTransform="matrix(0.95295618,-0.02665615,0.02617771,0.93591558,0.66318174,2.1792646)"
       gradientUnits="userSpaceOnUse"
       id="radialGradient6437"
       xlink:href="#linearGradient6527"
       inkscape:collect="always" />
    <radialGradient
       r="19.094028"
       fy="31.09733"
       fx="37.17944"
       cy="31.09733"
       cx="37.17944"
       gradientTransform="matrix(0.95295618,-0.02665615,0.02617771,0.93591558,0.66318174,2.1792646)"
       gradientUnits="userSpaceOnUse"
       id="radialGradient6439"
       xlink:href="#linearGradient6527"
       inkscape:collect="always" />
    <radialGradient
       r="19.094028"
       fy="31.09733"
       fx="37.17944"
       cy="31.09733"
       cx="37.17944"
       gradientTransform="matrix(0.95295618,-0.02665615,0.02617771,0.93591558,0.66318174,2.1792646)"
       gradientUnits="userSpaceOnUse"
       id="radialGradient6441"
       xlink:href="#linearGradient6527"
       inkscape:collect="always" />
    <radialGradient
       r="19.094028"
       fy="31.09733"
       fx="37.17944"
       cy="31.09733"
       cx="37.17944"
       gradientTransform="matrix(0.95295618,-0.02665615,0.02617771,0.93591558,0.66318174,2.1792646)"
       gradientUnits="userSpaceOnUse"
       id="radialGradient6443"
       xlink:href="#linearGradient6527"
       inkscape:collect="always" />
    <radialGradient
       r="19.094028"
       fy="31.09733"
       fx="37.17944"
       cy="31.09733"
       cx="37.17944"
       gradientTransform="matrix(0.95295618,-0.02665615,0.02617771,0.93591558,0.66318174,2.1792646)"
       gradientUnits="userSpaceOnUse"
       id="radialGradient6445"
       xlink:href="#linearGradient6527"
       inkscape:collect="always" />
    <radialGradient
       r="19.094028"
       fy="31.09733"
       fx="37.17944"
       cy="31.09733"
       cx="37.17944"
       gradientTransform="matrix(0.95295618,-0.02665615,0.02617771,0.93591558,0.66318174,2.1792646)"
       gradientUnits="userSpaceOnUse"
       id="radialGradient6447"
       xlink:href="#linearGradient6527"
       inkscape:collect="always" />
    <radialGradient
       r="19.094028"
       fy="31.09733"
       fx="37.17944"
       cy="31.09733"
       cx="37.17944"
       gradientTransform="matrix(0.95295618,-0.02665615,0.02617771,0.93591558,0.66318174,2.1792646)"
       gradientUnits="userSpaceOnUse"
       id="radialGradient6449"
       xlink:href="#linearGradient6527"
       inkscape:collect="always" />
    <radialGradient
       r="19.094028"
       fy="31.09733"
       fx="37.17944"
       cy="31.09733"
       cx="37.17944"
       gradientTransform="matrix(0.95295618,-0.02665615,0.02617771,0.93591558,0.66318174,2.1792646)"
       gradientUnits="userSpaceOnUse"
       id="radialGradient6451"
       xlink:href="#linearGradient6527"
       inkscape:collect="always" />
    <radialGradient
       r="19.094028"
       fy="31.09733"
       fx="37.17944"
       cy="31.09733"
       cx="37.17944"
       gradientTransform="matrix(0.95295618,-0.02665615,0.02617771,0.93591558,0.66318174,2.1792646)"
       gradientUnits="userSpaceOnUse"
       id="radialGradient6453"
       xlink:href="#linearGradient6527"
       inkscape:collect="always" />
    <radialGradient
       r="19.094028"
       fy="31.09733"
       fx="37.17944"
       cy="31.09733"
       cx="37.17944"
       gradientTransform="matrix(0.95295618,-0.02665615,0.02617771,0.93591558,0.66318174,2.1792646)"
       gradientUnits="userSpaceOnUse"
       id="radialGradient6455"
       xlink:href="#linearGradient6527"
       inkscape:collect="always" />
    <radialGradient
       r="19.094028"
       fy="31.09733"
       fx="37.17944"
       cy="31.09733"
       cx="37.17944"
       gradientTransform="matrix(0.95295618,-0.02665615,0.02617771,0.93591558,0.66318174,2.1792646)"
       gradientUnits="userSpaceOnUse"
       id="radialGradient6457"
       xlink:href="#linearGradient6527"
       inkscape:collect="always" />
    <radialGradient
       r="19.094028"
       fy="31.09733"
       fx="37.17944"
       cy="31.09733"
       cx="37.17944"
       gradientTransform="matrix(0.95295618,-0.02665615,0.02617771,0.93591558,0.66318174,2.1792646)"
       gradientUnits="userSpaceOnUse"
       id="radialGradient6459"
       xlink:href="#linearGradient6527"
       inkscape:collect="always" />
    <radialGradient
       r="19.094028"
       fy="31.09733"
       fx="37.17944"
       cy="31.09733"
       cx="37.17944"
       gradientTransform="matrix(0.95295618,-0.02665615,0.02617771,0.93591558,0.66318174,2.1792646)"
       gradientUnits="userSpaceOnUse"
       id="radialGradient6461"
       xlink:href="#linearGradient6527"
       inkscape:collect="always" />
    <radialGradient
       r="19.094028"
       fy="31.09733"
       fx="37.17944"
       cy="31.09733"
       cx="37.17944"
       gradientTransform="matrix(0.95295618,-0.02665615,0.02617771,0.93591558,0.66318174,2.1792646)"
       gradientUnits="userSpaceOnUse"
       id="radialGradient6463"
       xlink:href="#linearGradient6527"
       inkscape:collect="always" />
    <radialGradient
       r="19.094028"
       fy="31.09733"
       fx="37.17944"
       cy="31.09733"
       cx="37.17944"
       gradientTransform="matrix(0.95295618,-0.02665615,0.02617771,0.93591558,0.66318174,2.1792646)"
       gradientUnits="userSpaceOnUse"
       id="radialGradient6465"
       xlink:href="#linearGradient6527"
       inkscape:collect="always" />
    <radialGradient
       r="19.094028"
       fy="31.09733"
       fx="37.17944"
       cy="31.09733"
       cx="37.17944"
       gradientTransform="matrix(0.95295618,-0.02665615,0.02617771,0.93591558,0.66318174,2.1792646)"
       gradientUnits="userSpaceOnUse"
       id="radialGradient6467"
       xlink:href="#linearGradient6527"
       inkscape:collect="always" />
    <radialGradient
       r="19.094028"
       fy="31.09733"
       fx="37.17944"
       cy="31.09733"
       cx="37.17944"
       gradientTransform="matrix(0.95295618,-0.02665615,0.02617771,0.93591558,0.66318174,2.1792646)"
       gradientUnits="userSpaceOnUse"
       id="radialGradient6469"
       xlink:href="#linearGradient6527"
       inkscape:collect="always" />
    <radialGradient
       r="19.094028"
       fy="31.09733"
       fx="37.17944"
       cy="31.09733"
       cx="37.17944"
       gradientTransform="matrix(0.95295618,-0.02665615,0.02617771,0.93591558,0.66318174,2.1792646)"
       gradientUnits="userSpaceOnUse"
       id="radialGradient6471"
       xlink:href="#linearGradient6527"
       inkscape:collect="always" />
    <radialGradient
       r="19.094028"
       fy="31.09733"
       fx="37.17944"
       cy="31.09733"
       cx="37.17944"
       gradientTransform="matrix(0.95295618,-0.02665615,0.02617771,0.93591558,0.66318174,2.1792646)"
       gradientUnits="userSpaceOnUse"
       id="radialGradient6473"
       xlink:href="#linearGradient6527"
       inkscape:collect="always" />
    <radialGradient
       r="19.094028"
       fy="31.09733"
       fx="37.17944"
       cy="31.09733"
       cx="37.17944"
       gradientTransform="matrix(0.95295618,-0.02665615,0.02617771,0.93591558,0.66318174,2.1792646)"
       gradientUnits="userSpaceOnUse"
       id="radialGradient6475"
       xlink:href="#linearGradient6527"
       inkscape:collect="always" />
    <radialGradient
       r="19.094028"
       fy="31.09733"
       fx="37.17944"
       cy="31.09733"
       cx="37.17944"
       gradientTransform="matrix(0.95295618,-0.02665615,0.02617771,0.93591558,0.66318174,2.1792646)"
       gradientUnits="userSpaceOnUse"
       id="radialGradient6477"
       xlink:href="#linearGradient6527"
       inkscape:collect="always" />
    <radialGradient
       r="19.094028"
       fy="31.09733"
       fx="37.17944"
       cy="31.09733"
       cx="37.17944"
       gradientTransform="matrix(0.95295618,-0.02665615,0.02617771,0.93591558,0.66318174,2.1792646)"
       gradientUnits="userSpaceOnUse"
       id="radialGradient6479"
       xlink:href="#linearGradient6527"
       inkscape:collect="always" />
    <radialGradient
       r="19.094028"
       fy="31.09733"
       fx="37.17944"
       cy="31.09733"
       cx="37.17944"
       gradientTransform="matrix(0.95295618,-0.02665615,0.02617771,0.93591558,0.66318174,2.1792646)"
       gradientUnits="userSpaceOnUse"
       id="radialGradient6481"
       xlink:href="#linearGradient6527"
       inkscape:collect="always" />
    <radialGradient
       r="19.094028"
       fy="31.09733"
       fx="37.17944"
       cy="31.09733"
       cx="37.17944"
       gradientTransform="matrix(0.95295618,-0.02665615,0.02617771,0.93591558,0.66318174,2.1792646)"
       gradientUnits="userSpaceOnUse"
       id="radialGradient6483"
       xlink:href="#linearGradient6527"
       inkscape:collect="always" />
    <linearGradient
       inkscape:collect="always"
       xlink:href="#linearGradient3366"
       id="linearGradient10050"
       gradientUnits="userSpaceOnUse"
       gradientTransform="rotate(180,-227.04757,-358.57135)"
       x1="-225.89029"
       y1="-341.61874"
       x2="-151.83998"
       y2="-351.92529" />
    <linearGradient
       inkscape:collect="always"
       xlink:href="#linearGradient3366"
       id="linearGradient10052"
       gradientUnits="userSpaceOnUse"
       gradientTransform="matrix(1,0,0,0.8927203,8.010194,-77.544232)"
       x1="-225.89029"
       y1="-341.61874"
       x2="-150.06522"
       y2="-354.84586" />
  </defs>
  <sodipodi:namedview
     id="base"
     pagecolor="#ffffff"
     bordercolor="#666666"
     borderopacity="1.0"
     inkscape:pageopacity="0.0"
     inkscape:pageshadow="2"
     inkscape:zoom="0.98994949"
     inkscape:cx="232.77711"
     inkscape:cy="909.39663"
     inkscape:document-units="mm"
     inkscape:current-layer="layer1"
     showgrid="false"
     inkscape:window-width="1600"
     inkscape:window-height="845"
     inkscape:window-x="0"
     inkscape:window-y="27"
     inkscape:window-maximized="1" />
  <metadata
     id="metadata9417">
    <rdf:RDF>
      <cc:Work
         rdf:about="">
        <dc:format>image/svg+xml</dc:format>
        <dc:type
           rdf:resource="http://purl.org/dc/dcmitype/StillImage" />
        <dc:title></dc:title>
      </cc:Work>
    </rdf:RDF>
  </metadata>
  <g
     inkscape:label="Layer 1"
     inkscape:groupmode="layer"
     id="layer1">
    <g
       transform="matrix(0.16982754,0.07285497,-0.07202919,0.1679026,113.05404,-17.190129)"
       id="layer1-56"
       inkscape:label="Calque 1"
       style="display:inline;stroke-width:1.43994975">
      <g
         transform="matrix(1.5407029,0,0,1.5407029,634.03082,729.52165)"
         id="g3408"
         style="stroke-width:1.43994975">
        <path
           inkscape:connector-curvature="0"
           style="fill:url(#linearGradient3418);fill-opacity:1;fill-rule:evenodd;stroke:#000000;stroke-width:0.93460572px;stroke-linecap:butt;stroke-linejoin:round;stroke-opacity:1"
           d="m -233.26238,-367.72092 4.55752,-17.95389 -74.02524,12.42961 -4.97825,17.53886 z"
           id="path3374"
           sodipodi:nodetypes="ccccc" />
        <path
           sodipodi:nodetypes="cccc"
           inkscape:connector-curvature="0"
           style="fill:#fff6d5;fill-rule:evenodd;stroke:#000000;stroke-width:0.93460572px;stroke-linecap:butt;stroke-linejoin:round;stroke-opacity:1"
           d="m -249.84448,-368.72995 16.40999,14.01272 14.37444,-3.65677 -16.22738,-15.00828"
           id="path3358" />
        <path
           inkscape:connector-curvature="0"
           style="fill:#d4aa00;fill-rule:evenodd;stroke:#000000;stroke-width:0.93460572px;stroke-linecap:butt;stroke-linejoin:round;stroke-opacity:1"
           d="m -249.97125,-368.62586 5.9293,-25.19827 14.32501,-4.21123 -6.30757,24.99733 z"
           id="path3352"
           sodipodi:nodetypes="ccccc" />
        <path
           sodipodi:nodetypes="ccccc"
           inkscape:connector-curvature="0"
           style="fill:#ffeeaa;fill-rule:evenodd;stroke:#000000;stroke-width:0.93460572px;stroke-linecap:butt;stroke-linejoin:round;stroke-opacity:1"
           d="m -229.70622,-398.05832 18.1359,12.76279 -7.32895,26.89682 -17.53956,-14.50122 z"
           id="path3354" />
        <path
           sodipodi:nodetypes="ccc"
           inkscape:connector-curvature="0"
           style="fill:none;stroke:#000000;stroke-width:2.80381703;stroke-linecap:butt;stroke-linejoin:miter;stroke-miterlimit:4;stroke-dasharray:none;stroke-opacity:1"
           d="m -215.22503,-374.63965 -12.16781,-4.7513 16.34503,-9.65511"
           id="path3378" />
        <path
           inkscape:connector-curvature="0"
           style="fill:url(#linearGradient3420);fill-opacity:1;fill-rule:evenodd;stroke:#000000;stroke-width:0.93460572px;stroke-linecap:butt;stroke-linejoin:round;stroke-opacity:1"
           d="m -212.82256,-389.48014 -4.55753,16.0278 74.02524,-11.09617 2.81637,-18.21428 z"
           id="path3364"
           sodipodi:nodetypes="ccccc" />
        <path
           inkscape:connector-curvature="0"
           style="fill:#333333;fill-opacity:1;fill-rule:evenodd;stroke:#000000;stroke-width:0.93460572px;stroke-linecap:butt;stroke-linejoin:miter;stroke-opacity:1"
           d="m -247.78363,-367.39678 c 1.48202,-4.02777 10.89212,-3.80867 14.84649,-2.14065 4.83179,2.03813 8.50228,8.40171 6.0767,13.05109 -1.90071,3.6433 -8.70174,2.8338 -12.42962,1.10485 -4.26982,-1.9803 -10.11886,-7.59813 -8.49357,-12.01529 z"
           id="path3380-2"
           sodipodi:nodetypes="cssss" />
        <path
           inkscape:connector-curvature="0"
           style="fill:#000000;fill-rule:evenodd;stroke:#000000;stroke-width:0.93460572px;stroke-linecap:butt;stroke-linejoin:miter;stroke-opacity:1"
           d="m -249.30495,-363.93067 c 1.48202,-4.02777 10.89212,-3.80867 14.84649,-2.14065 4.83179,2.03813 8.50228,8.40171 6.0767,13.05109 -1.90071,3.6433 -8.70174,2.8338 -12.42962,1.10485 -4.26982,-1.9803 -10.11886,-7.59813 -8.49357,-12.01529 z"
           id="path3380"
           sodipodi:nodetypes="cssss" />
      </g>
    </g>
    <g
       inkscape:label="Layer 1"
       id="layer1-9"
       transform="matrix(1.4214702,0,0,1.4197217,67.783967,52.83706)"
       style="stroke-width:0.18624812">
      <ellipse
         style="color:#000000;display:block;overflow:visible;visibility:visible;opacity:0.6;fill:url(#radialGradient6386);fill-opacity:1;fill-rule:nonzero;stroke:none;stroke-width:0.18624812;marker:none"
         id="path6548"
         transform="matrix(1.070555,0,0,0.525,-1.5403842,22.5)"
         inkscape:r_cx="true"
         inkscape:r_cy="true"
         cx="23.857143"
         cy="40"
         rx="17.142857"
         ry="8.5714283" />
      <path
         inkscape:connector-curvature="0"
         id="path3214"
         d="m 42.499998,23.999308 c 0,10.769899 -8.731089,19.50069 -19.499752,19.50069 -10.76965,0 -19.5002462,-8.73089 -19.5002462,-19.50069 C 3.4999998,13.229902 12.230596,4.5 23.000246,4.5 c 10.768663,0 19.499752,8.729902 19.499752,19.499308 z"
         style="fill:url(#radialGradient3968);fill-opacity:1;fill-rule:nonzero;stroke:#39396c;stroke-width:0.18624812;stroke-miterlimit:4;stroke-opacity:1" />
      <g
         transform="matrix(0.98791378,0,0,0.98789128,-1.5861235,0.6160591)"
         style="fill:url(#radialGradient6533);fill-opacity:1;fill-rule:nonzero;stroke:none;stroke-width:0.18624812"
         id="g4136">
        <g
           style="fill:url(#radialGradient6409);fill-opacity:1;stroke-width:0.18624812"
           id="g4138">
          <g
             style="fill:url(#radialGradient6407);fill-opacity:1;stroke-width:0.18624812"
             id="g4142">
            <path
               sodipodi:nodetypes="ccccccccccccccccccccccccccccccccccccccccccccccccccccccccccccccccccccccccccccccccccccccccccccccccccccccccccccccccccccccccccccccccccccc"
               inkscape:connector-curvature="0"
               style="fill:url(#radialGradient6405);fill-opacity:1;stroke-width:0.18624812"
               id="path4144"
               d="M 43.879656,20.648284 43.5264,21.3316 c -0.334,-0.3936 -0.709,-0.7246 -1.0898,-1.0703 l -0.8359,0.123 -0.7637,-0.8633 v 1.0684 l 0.6543,0.4951 0.4355,0.4932 0.582,-0.6582 c 0.1465,0.2744 0.291,0.5488 0.4365,0.8232 v 0.8223 l -0.6553,0.7402 -1.1992,0.8232 -0.9082,0.9063 -0.582,-0.6602 0.291,-0.7402 -0.5811,-0.6582 -0.9814,-2.0977 -0.8359,-0.9453 -0.2188,0.2461 0.3281,1.1934 0.6172,0.6992 c 0.3525,1.0176 0.7012,1.9902 1.1641,2.9629 0.7178,0 1.3945,-0.0762 2.1074,-0.166 v 0.5762 l -0.8721,2.1392 -0.7998,0.9043 -0.6543,1.4004 c 0,0.7676 0,1.5352 0,2.3027 l 0.2188,0.9063 -0.3633,0.4102 -0.8008,0.4941 -0.8359,0.6992 0.6914,0.7813 -0.9453,0.8242 0.1816,0.5332 -1.418,1.6055 h -0.9443 l -0.7998,0.4941 H 33.6396 V 38.2814 L 33.4228,36.963 c -0.2813,-0.8262 -0.5742,-1.6465 -0.8721,-2.4668 0,-0.6055 0.0361,-1.2051 0.0723,-1.8105 l 0.3643,-0.8223 -0.5098,-0.9883 0.0371,-1.3574 -0.6914,-0.7813 0.3457,-1.1309 -0.5625,-0.6382 H 30.624 l -0.3271,-0.3701 -0.9814,0.6177 -0.3994,-0.4536 -0.9092,0.7817 c -0.6172,-0.6997 -1.2354,-1.3989 -1.8535,-2.0981 l -0.7266,-1.7285 0.6543,-0.9863 -0.3633,-0.4111 0.7988,-1.8936 c 0.6563,-0.8164 1.3418,-1.5996 2.0352,-2.3857 l 1.2363,-0.3291 1.3809,-0.1641 0.9453,0.2471 1.3447,1.3564 0.4727,-0.5342 0.6533,-0.082 1.2363,0.4111 h 0.9453 l 0.6543,-0.5762 0.291,-0.4111 -0.6553,-0.4111 -1.0908,-0.082 c -0.3027,-0.4199 -0.584,-0.8613 -0.9434,-1.2344 l -0.3643,0.1641 -0.1455,1.0703 -0.6543,-0.7402 -0.1445,-0.8242 -0.7266,-0.5742 h -0.292 l 0.7275,0.8223 -0.291,0.7402 -0.5811,0.1641 0.3633,-0.7402 -0.6553,-0.3281 -0.5801,-0.6582 -1.0918,0.2461 -0.1445,0.3281 -0.6543,0.4121 -0.3633,0.9053 -0.9082,0.4521 -0.4004,-0.4521 h -0.4355 v -1.4814 l 0.9453,-0.4941 h 0.7266 l -0.1465,-0.5752 -0.5801,-0.5762 0.9805,-0.2061 0.5449,-0.6162 0.4355,-0.7412 h 0.8008 l -0.2188,-0.5752 0.5098,-0.3291 v 0.6582 l 1.0898,0.2461 1.0898,-0.9043 0.0732,-0.4121 0.9443,-0.6577 c -0.3418,0.0425 -0.6836,0.0737 -1.0176,0.1646 V 9.9766 L 34.2213,9.1538 H 33.858 l -0.7984,0.7402 -0.2188,0.4116 0.2188,0.5767 -0.3643,0.9863 -0.5811,-0.3291 -0.5078,-0.5752 -0.8008,0.5752 -0.291,-1.3159 1.3809,-0.9048 V 8.8247 l 0.873,-0.5757 1.3809,-0.3296 0.9453,0.3296 1.7441,0.3291 -0.4355,0.4932 H 35.458 l 0.9453,0.9873 0.7266,-0.8223 0.157078,-0.282273 c 3.129549,2.868759 5.87898,6.664564 6.592678,11.694257 z" />
          </g>
        </g>
        <g
           style="fill:url(#radialGradient6415);fill-opacity:1;stroke-width:0.18624812"
           id="g4146">
          <g
             style="fill:url(#radialGradient6413);fill-opacity:1;stroke-width:0.18624812"
             id="g4150">
            <path
               inkscape:connector-curvature="0"
               style="fill:url(#radialGradient6411);fill-opacity:1;stroke-width:0.18624812"
               id="path4152"
               d="m 26.0703,9.2363 -0.0732,0.4932 0.5098,0.3291 0.8711,-0.5757 -0.4355,-0.4937 -0.582,0.3296 -0.29,-0.0825" />
          </g>
        </g>
        <g
           style="fill:url(#radialGradient6421);fill-opacity:1;stroke-width:0.18624812"
           id="g4154">
          <g
             style="fill:url(#radialGradient6419);fill-opacity:1;stroke-width:0.18624812"
             id="g4158">
            <path
               inkscape:connector-curvature="0"
               style="fill:url(#radialGradient6417);fill-opacity:1;stroke-width:0.18624812"
               id="path4160"
               d="m 26.8701,5.8633 -1.8906,-0.7407 -2.1797,0.2466 -2.6904,0.7402 -0.5088,0.4941 1.6719,1.1514 v 0.6582 l -0.6543,0.6582 0.873,1.729 0.5801,-0.3301 0.7285,-1.1514 c 1.123,-0.3472 2.1299,-0.7407 3.1973,-1.2344 l 0.873,-2.2212" />
          </g>
        </g>
        <g
           style="fill:url(#radialGradient6427);fill-opacity:1;stroke-width:0.18624812"
           id="g4162">
          <g
             style="fill:url(#radialGradient6425);fill-opacity:1;stroke-width:0.18624812"
             id="g4166">
            <path
               inkscape:connector-curvature="0"
               style="fill:url(#radialGradient6423);fill-opacity:1;stroke-width:0.18624812"
               id="path4168"
               d="m 28.833,12.7749 -0.291,-0.7412 -0.5098,0.165 0.1465,0.9043 0.6543,-0.3281" />
          </g>
        </g>
        <g
           style="fill:url(#radialGradient6433);fill-opacity:1;stroke-width:0.18624812"
           id="g4170">
          <g
             style="fill:url(#radialGradient6431);fill-opacity:1;stroke-width:0.18624812"
             id="g4174">
            <path
               inkscape:connector-curvature="0"
               style="fill:url(#radialGradient6429);fill-opacity:1;stroke-width:0.18624812"
               id="path4176"
               d="m 29.123,12.6089 -0.1455,0.9883 0.7998,-0.165 0.5811,-0.5752 -0.5088,-0.4941 C 29.6787,11.9078 29.4824,11.483 29.2685,11.0465 H 28.833 v 0.4932 l 0.29,0.3291 v 0.7402" />
          </g>
        </g>
        <g
           style="fill:url(#radialGradient6439);fill-opacity:1;stroke-width:0.18624812"
           id="g4178">
          <g
             style="fill:url(#radialGradient6437);fill-opacity:1;stroke-width:0.18624812"
             id="g4182">
            <path
               sodipodi:nodetypes="cccccccccccccccccccccccccccccccccccccccccccccccccccccccccccccccccccccccccccccccccccccccccccc"
               inkscape:connector-curvature="0"
               style="fill:url(#radialGradient6435);fill-opacity:1;stroke-width:0.18624812"
               id="path4184"
               d="m 18.3652,28.2422 -0.582,-1.1523 -1.0903,-0.2466 -0.5815,-1.5625 -1.4536,0.1641 -1.2354,-0.9043 -1.3091,1.1514 v 0.1816 c -0.396,-0.1143 -0.8828,-0.1299 -1.2354,-0.3467 l -0.291,-0.8223 v -0.9053 l -0.8721,0.082 c 0.0728,-0.5762 0.145,-1.1514 0.2183,-1.7275 H 9.4238 L 8.9155,22.812 8.4062,23.0581 7.6791,22.6479 7.6063,21.7426 7.7518,20.7553 8.8426,19.933 h 0.8721 l 0.145,-0.4941 1.0903,0.2461 0.7998,0.9883 0.1455,-1.6465 1.3813,-1.1514 0.5088,-1.2344 1.0176,-0.4111 0.5815,-0.8223 1.3081,-0.248 0.6548,-0.9863 c -0.6543,0 -1.3086,0 -1.9629,0 l 1.2358,-0.5762 h 0.8716 l 1.2363,-0.4121 0.1455,-0.4922 -0.4365,-0.4121 -0.5088,-0.165 0.1455,-0.4932 -0.3633,-0.7402 -0.8726,0.3281 0.1455,-0.6577 -1.0176,-0.5762 -0.7993,1.3979 0.0723,0.4941 -0.7993,0.3301 -0.5093,1.0693 -0.2178,-0.9873 -1.3813,-0.5762 -0.2183,-0.7402 1.8174,-1.0703 0.7998,-0.7402 0.0728,-0.9048 -0.436,-0.2471 -0.5815,-0.0825 -0.3633,0.9053 c 0,0 -0.703332,0.055478 -0.859632,0.094078 C 9.9867169,11.059151 6.5013568,14.983265 5.6916,22.2885 c 0.0371,0.1738 0.6792,1.1816 0.6792,1.1816 l 1.5264,0.9043 1.5264,0.4121 0.6548,0.8232 1.0171,0.7402 0.5815,-0.082 0.436,0.1963 v 0.1328 l -0.5811,1.563 -0.4365,0.6582 0.1455,0.3301 -0.3633,1.2324 1.3086,2.3867 1.3081,1.1523 0.582,0.8223 -0.0732,1.7285 0.4365,0.9863 -0.4365,1.8926 c 0,0 -0.0342,-0.0117 0.0215,0.1777 0.0562,0.1895 2.3291,1.4512 2.4736,1.3438 0.144,-0.1094 0.2671,-0.2051 0.2671,-0.2051 l -0.145,-0.4102 0.5811,-0.5762 0.2183,-0.5762 0.9453,-0.3301 0.7266,-1.8105 -0.2178,-0.4922 0.5078,-0.7402 1.0908,-0.248 0.582,-1.3164 -0.1455,-1.6445 0.8721,-1.2344 0.1455,-1.2344 C 20.7331,29.4607 19.5495,28.8513 18.365,28.242" />
          </g>
        </g>
        <g
           style="fill:url(#radialGradient6445);fill-opacity:1;stroke-width:0.18624812"
           id="g4186">
          <g
             style="fill:url(#radialGradient6443);fill-opacity:1;stroke-width:0.18624812"
             id="g4190">
            <path
               inkscape:connector-curvature="0"
               style="fill:url(#radialGradient6441);fill-opacity:1;stroke-width:0.18624812"
               id="path4192"
               d="m 16.7656,9.5649 0.7266,0.4937 h 0.582 V 9.4829 l -0.7266,-0.3291 -0.582,0.4111" />
          </g>
        </g>
        <g
           style="fill:url(#radialGradient6451);fill-opacity:1;stroke-width:0.18624812"
           id="g4194">
          <g
             style="fill:url(#radialGradient6449);fill-opacity:1;stroke-width:0.18624812"
             id="g4198">
            <path
               inkscape:connector-curvature="0"
               style="fill:url(#radialGradient6447);fill-opacity:1;stroke-width:0.18624812"
               id="path4200"
               d="M 14.876,8.9072 14.5122,9.812 h 0.7271 L 15.6031,8.9892 C 15.9166,8.7675 16.2286,8.5444 16.5479,8.331 l 0.7271,0.2471 c 0.4844,0.3291 0.9688,0.6582 1.4536,0.9868 L 19.4561,8.9072 18.6558,8.5781 18.292,7.8374 16.9111,7.6728 16.8383,7.2612 16.184,7.4262 15.8936,8.002 15.5298,7.2613 l -0.145,0.3291 0.0728,0.8228 -0.5816,0.494" />
          </g>
        </g>
        <g
           style="fill:url(#radialGradient6461);fill-opacity:1;stroke-width:0.18624812"
           id="g4202">
          <g
             id="g4204"
             style="opacity:0.75;fill:url(#radialGradient6455);fill-opacity:1;stroke-width:0.18624812">
            <path
               inkscape:connector-curvature="0"
               style="fill:url(#radialGradient6453);fill-opacity:1;stroke-width:0.18624812"
               d=""
               id="path4206" />
          </g>
          <g
             style="fill:url(#radialGradient6459);fill-opacity:1;stroke-width:0.18624812"
             id="g4208">
            <path
               inkscape:connector-curvature="0"
               style="fill:url(#radialGradient6457);fill-opacity:1;stroke-width:0.18624812"
               d=""
               id="path4210" />
          </g>
        </g>
        <g
           style="fill:url(#radialGradient6471);fill-opacity:1;stroke-width:0.18624812"
           id="g4212">
          <g
             id="g4214"
             style="opacity:0.75;fill:url(#radialGradient6465);fill-opacity:1;stroke-width:0.18624812">
            <path
               inkscape:connector-curvature="0"
               style="fill:url(#radialGradient6463);fill-opacity:1;stroke-width:0.18624812"
               d=""
               id="path4216" />
          </g>
          <g
             style="fill:url(#radialGradient6469);fill-opacity:1;stroke-width:0.18624812"
             id="g4218">
            <path
               inkscape:connector-curvature="0"
               style="fill:url(#radialGradient6467);fill-opacity:1;stroke-width:0.18624812"
               d=""
               id="path4220" />
          </g>
        </g>
        <g
           style="fill:url(#radialGradient6477);fill-opacity:1;stroke-width:0.18624812"
           id="g4222">
          <g
             style="fill:url(#radialGradient6475);fill-opacity:1;stroke-width:0.18624812"
             id="g4226">
            <path
               inkscape:connector-curvature="0"
               style="fill:url(#radialGradient6473);fill-opacity:1;stroke-width:0.18624812"
               id="path4228"
               d="M 17.4922,6.8496 17.856,6.521 18.5831,6.3564 c 0.498,-0.2422 0.998,-0.4053 1.5264,-0.5762 l -0.29,-0.4937 -0.9385,0.1348 -0.4434,0.4419 -0.731,0.106 -0.6499,0.3052 -0.3159,0.1528 -0.1929,0.2583 0.9443,0.1641" />
          </g>
        </g>
        <g
           style="fill:url(#radialGradient6483);fill-opacity:1;stroke-width:0.18624812"
           id="g4230">
          <g
             style="fill:url(#radialGradient6481);fill-opacity:1;stroke-width:0.18624812"
             id="g4234">
            <path
               inkscape:connector-curvature="0"
               style="fill:url(#radialGradient6479);fill-opacity:1;stroke-width:0.18624812"
               id="path4236"
               d="m 18.7285,14.6665 0.4365,-0.6582 -0.6548,-0.4932 0.2183,1.1514" />
          </g>
        </g>
      </g>
      <path
         inkscape:connector-curvature="0"
         id="path4122"
         d="m 41.509682,23.999343 c 0,10.222944 -8.287677,18.51034 -18.509448,18.51034 -10.222709,0 -18.5099181,-8.287489 -18.5099181,-18.51034 0,-10.222477 8.2872091,-18.5090269 18.5099181,-18.5090269 10.221771,0 18.509448,8.2865499 18.509448,18.5090269 z"
         style="opacity:0.39560439;fill:none;stroke:url(#radialGradient4132);stroke-width:0.18624812;stroke-miterlimit:4;stroke-opacity:1" />
    </g>
    <g
       style="display:inline;stroke-width:1.43994975"
       inkscape:label="Calque 1"
       id="g10048"
       transform="matrix(0.06603277,-0.17259465,0.17063835,0.0652843,11.032643,71.575556)">
      <g
         style="stroke-width:1.43994975"
         id="g10046"
         transform="matrix(1.5407029,0,0,1.5407029,634.03082,729.52165)">
        <path
           sodipodi:nodetypes="ccccc"
           id="path10030"
           d="m -233.26238,-367.72092 4.55752,-17.95389 -74.02524,12.42961 -4.97825,17.53886 z"
           style="fill:url(#linearGradient10050);fill-opacity:1;fill-rule:evenodd;stroke:#000000;stroke-width:0.93460572px;stroke-linecap:butt;stroke-linejoin:round;stroke-opacity:1"
           inkscape:connector-curvature="0" />
        <path
           id="path10032"
           d="m -249.84448,-368.72995 16.40999,14.01272 14.37444,-3.65677 -16.22738,-15.00828"
           style="fill:#fff6d5;fill-rule:evenodd;stroke:#000000;stroke-width:0.93460572px;stroke-linecap:butt;stroke-linejoin:round;stroke-opacity:1"
           inkscape:connector-curvature="0"
           sodipodi:nodetypes="cccc" />
        <path
           sodipodi:nodetypes="ccccc"
           id="path10034"
           d="m -249.97125,-368.62586 5.9293,-25.19827 14.32501,-4.21123 -6.30757,24.99733 z"
           style="fill:#d4aa00;fill-rule:evenodd;stroke:#000000;stroke-width:0.93460572px;stroke-linecap:butt;stroke-linejoin:round;stroke-opacity:1"
           inkscape:connector-curvature="0" />
        <path
           id="path10036"
           d="m -229.70622,-398.05832 18.1359,12.76279 -7.32895,26.89682 -17.53956,-14.50122 z"
           style="fill:#ffeeaa;fill-rule:evenodd;stroke:#000000;stroke-width:0.93460572px;stroke-linecap:butt;stroke-linejoin:round;stroke-opacity:1"
           inkscape:connector-curvature="0"
           sodipodi:nodetypes="ccccc" />
        <path
           id="path10038"
           d="m -215.22503,-374.63965 -12.16781,-4.7513 16.34503,-9.65511"
           style="fill:none;stroke:#000000;stroke-width:2.80381703;stroke-linecap:butt;stroke-linejoin:miter;stroke-miterlimit:4;stroke-dasharray:none;stroke-opacity:1"
           inkscape:connector-curvature="0"
           sodipodi:nodetypes="ccc" />
        <path
           sodipodi:nodetypes="ccccc"
           id="path10040"
           d="m -212.82256,-389.48014 -4.55753,16.0278 74.02524,-11.09617 2.81637,-18.21428 z"
           style="fill:url(#linearGradient10052);fill-opacity:1;fill-rule:evenodd;stroke:#000000;stroke-width:0.93460572px;stroke-linecap:butt;stroke-linejoin:round;stroke-opacity:1"
           inkscape:connector-curvature="0" />
        <path
           sodipodi:nodetypes="cssss"
           id="path10042"
           d="m -247.78363,-367.39678 c 1.48202,-4.02777 10.89212,-3.80867 14.84649,-2.14065 4.83179,2.03813 8.50228,8.40171 6.0767,13.05109 -1.90071,3.6433 -8.70174,2.8338 -12.42962,1.10485 -4.26982,-1.9803 -10.11886,-7.59813 -8.49357,-12.01529 z"
           style="fill:#333333;fill-opacity:1;fill-rule:evenodd;stroke:#000000;stroke-width:0.93460572px;stroke-linecap:butt;stroke-linejoin:miter;stroke-opacity:1"
           inkscape:connector-curvature="0" />
        <path
           sodipodi:nodetypes="cssss"
           id="path10044"
           d="m -249.30495,-363.93067 c 1.48202,-4.02777 10.89212,-3.80867 14.84649,-2.14065 4.83179,2.03813 8.50228,8.40171 6.0767,13.05109 -1.90071,3.6433 -8.70174,2.8338 -12.42962,1.10485 -4.26982,-1.9803 -10.11886,-7.59813 -8.49357,-12.01529 z"
           style="fill:#000000;fill-rule:evenodd;stroke:#000000;stroke-width:0.93460572px;stroke-linecap:butt;stroke-linejoin:miter;stroke-opacity:1"
           inkscape:connector-curvature="0" />
      </g>
    </g>
    <path
       style="fill:none;fill-rule:evenodd;stroke:#000000;stroke-width:1;stroke-linecap:butt;stroke-linejoin:miter;stroke-miterlimit:4;stroke-dasharray:none;stroke-opacity:1"
       d="M 146.46901,33.527128 109.03226,72.039732 56.977505,34.813255"
       id="path10054"
       inkscape:connector-curvature="0" />
  </g>
</svg>
